<?xml version="1.0" encoding="utf-8"?><svg height="130" viewBox="0 0 320 130" width="320" xmlns="http://www.w3.org/2000/svg" xmlns:xlink="http://www.w3.org/1999/xlink"><linearGradient id="a" x1="19.662%" x2="69.353%" y1="56.701%" y2="45.719%"><stop offset="0" stop-color="#b0d235"/><stop offset=".22" stop-color="#98c839"/><stop offset=".65" stop-color="#6eb73f"/><stop offset="1" stop-color="#5eb041"/></linearGradient><linearGradient id="b" x1="-.497%" x2="32.94%" y1="79.239%" y2="53.555%"><stop offset=".09" stop-color="#56565a"/><stop offset=".56" stop-color="#66666a"/><stop offset="1" stop-color="#7a7a7d"/></linearGradient><linearGradient id="c" x1="49.949%" x2="49.949%" y1="881.676%" y2="123.435%"><stop offset="0" stop-color="#b0d235"/><stop offset=".19" stop-color="#acd036"/><stop offset=".38" stop-color="#9fcb37"/><stop offset=".58" stop-color="#8ac23b"/><stop offset=".78" stop-color="#6db63f"/><stop offset="1" stop-color="#5eb041"/></linearGradient><linearGradient id="d" x1="50%" x2="50%" y1="100%" y2=".055%"><stop offset="0" stop-color="#b0d235"/><stop offset=".17911" stop-color="#acd036"/><stop offset=".38" stop-color="#9fcb37"/><stop offset=".58" stop-color="#8ac23b"/><stop offset=".78" stop-color="#6db63f"/><stop offset="1" stop-color="#5eb041"/></linearGradient><g fill="none" fill-rule="nonzero"><path d="m192.554917 98.7718401c.085694.1689415.063274.3725055-.057139.5188031l-.924611 1.1828708c-.092007.115182-.231667.182059-.379195.181581h-9.448694v5.239911h9.542194c.18251-.001268.349806.101401.431139.26459.084467.168439.064246.370405-.051944.518803l-.862278 1.094674c-.089883.114987-.22794.182016-.374.181581h-8.685111v6.568047c0 .263605-.213958.477299-.477889.477299h-1.371333c-.263931 0-.477889-.213694-.477889-.477299v-15.5122114c0-.2636049.213958-.4772989.477889-.4772989h12.227722c.176872-.0063245.34276.0855.431139.2386494zm5.225611-.2697775h-1.350556c-.262757.002807-.475078.2148654-.477889.4772988v15.5122116c0 .263605.213959.477299.477889.477299h1.350556c.263931 0 .477889-.213694.477889-.477299v-15.5122116c-.016319-.2522547-.224805-.4491666-.477889-.4513587zm13.448417-.0051881c3.381583 0 5.397027 1.7224265 5.397027 4.6069715.008664 1.364183-.675841 2.639696-1.818055 3.387784 1.353326.782081 2.168853 2.241844 2.124528 3.802826 0 1.405957-.566195 4.669228-5.797 4.669228h-8.1345c-.263931 0-.477889-.213694-.477889-.477299v-15.5122117c0-.1265875.050349-.2479903.13997-.3375012.089622-.0895109.211175-.1397976.337919-.1397976zm.779166 9.1101815h-7.157944v5.250287h6.31125c2.155694 0 3.443916-.990914 3.443916-2.656271.032958-.697547-.230078-1.376644-.724477-1.870433-.4944-.493788-1.174336-.756499-1.872745-.723583zm-.753194-6.967525h-6.430722v4.98051h7.147555c.632137.012546 1.242734-.229512 1.694186-.671623s.705772-1.047074.705647-1.678555c0-2.173785-1.683-2.630332-3.116666-2.630332zm22.419222 12.217812h-10.840806v-5.21397h9.266889c.14606.000434.284118-.066594.374-.181582l.815528-1.037606c.110757-.144187.129921-.338682.04943-.501667-.08049-.162985-.246667-.266175-.428624-.266161h-10.077223v-5.00645h9.801917c.148413-.000774.288233-.069641.379195-.186769l.903833-1.1828708c.106624-.1451193.123502-.3374518.043779-.4988834-.079724-.1614316-.242791-.265117-.422974-.2689452h-12.560166c-.126744 0-.248297.0502867-.337919.1397976-.089621.0895109-.13997.2109137-.13997.3375012v15.5122116c0 .126588.050349.24799.13997.337501.089622.089511.211175.1398.337919.1398h11.786194c.147528.000476.287188-.066402.379195-.181583l.903833-1.156931c.113342-.143418.134763-.338875.05517-.503386-.079593-.16451-.246234-.269204-.42917-.269631zm11.832944-14.3552804c4.462028 0 7.230667 2.0752124 7.230667 5.4629964 0 2.760032-1.859611 4.591407-5.038611 5.037578l6.12425 5.125774c.158098.126327.216809.33994.145444.529179-.069333.186659-.247387.310729-.446722.311339h-1.880389c-.114454.001746-.225508-.038923-.311666-.114194l-6.482667-5.494124h-5.064583v5.130962c0 .126588-.050349.24799-.139971.337501-.089621.089511-.211174.139855-.337918.139855h-1.350556c-.263931 0-.477889-.213751-.477889-.477356v-15.5122116c0-.2636049.213958-.4772988.477889-.4772988zm-.436333 2.1478444h-5.287944v6.630303h5.287944c1.594694 0 5.303528-.316469 5.303528-3.232143 0-2.806724-2.882917-3.39816-5.303528-3.39816z" fill="url(#a)"/><path d="m226.646056 36.1211821c16.617027 0 27.353944 10.0855316 27.353944 25.6859397 0 15.7923653-10.482389 25.6081193-27.353944 25.6081193-16.622223 0-27.364334-10.0077111-27.364334-25.6081193 0-15.6004081 10.742111-25.6859397 27.364334-25.6859397zm-48.147306-21.1211821c.256292-.0091057.505975.0832616.694026.2574564.188051.1741949.299038.4159211.308502.6719104v49.602761c0 5.1050222 1.194722 8.9960452 3.558194 11.4603597 2.363473 2.4643146 6.03075 3.6783137 10.866778 3.6783137v-.010376c.259962.0007977.510178.0989093.70125.2749656.188882.1669463.296742.4069694.296086.6588799v4.1504245c-.019564.521572-.448781.9338458-.971364.9338458h-1.080444c-6.545 0-11.682306-1.6809222-15.28725-5.0116379-3.864667-3.6264334-5.822972-9.0531135-5.822972-16.1347753v-49.602761c.019734-.5310121.465587-.9461643.997333-.9293668zm-31.857527.0001754c.254902-.007857.502689.0852999.688781.2594851.186092.1741851.295224.41511.303357.6697063v49.602761c0 5.1050222 1.194723 8.9960452 3.558195 11.4603597 2.363472 2.4643146 5.978805 3.6783137 10.866778 3.6783137l.025972-.010376c.259962.0007977.510178.0989093.70125.2749656.188882.1669463.296742.4069694.296086.6588799v4.1504245c-.019565.521572-.448781.9338458-.971364.9338458h-1.080444c-6.545 0-11.682306-1.6809222-15.28725-5.0116379-3.859473-3.6212454-5.812584-9.0479254-5.812584-16.1347753v-49.602761c.019734-.5310121.465588-.9461643.997334-.9291914zm-47.6746115 1.538317c1.6792335 0 3.2190015.9330994 3.9945275 2.4206843.017454.0224123 6.812385 15.2170501 13.874395 31.013413l.883671 1.9766254c7.36767 16.4804278 14.730795 32.9550191 14.730795 32.9550191.127456.2887056.089765.6235449-.098694.8767772-.192832.2652731-.502931.4201315-.831111.4152143h-6.300861c-.393744.0071306-.754538-.2188508-.919417-.5760432l-25.3333055-57.7012768-24.5749166 55.9529104-.0850239.1830941c-.7743763 1.559939-2.5112912 2.4146176-4.2347823 2.0577644-1.7897793-.3705784-3.0728162-1.9457505-3.0718887-3.7713275.000701-.5602547.1267046-1.1132772.3688061-1.6186656 0 0 .0027561-.0061711.0082134-.0183901l.1205576-.2699299c2.0321345-4.5499543 27.4346133-61.4253797 27.4745067-61.4751848.7755265-1.4875849 2.3152942-2.4206843 3.9945277-2.4206843zm153.8909335 62.2184118c.682284.4079221 1.103249 1.134839 1.123518 1.9210121l-.001841.169278c.040377.8499783-.390659 1.6532307-1.121677 2.09029s-1.643489.4370593-2.374507 0c-.682283-.407922-1.103249-1.1348389-1.123518-1.921012l.001841-.169278c-.040377-.8499783.390659-1.6532307 1.121677-2.0902901.731018-.4370593 1.643489-.4370593 2.374507 0zm-2.240181.2345285c-.60181.360619-.973353 1.0015839-.992883 1.694932l.001797.1608296c-.012637.5478454.197187 1.0774916.581714 1.4683848.384528.3908933.911042.6097758 1.459702.6068568 1.08373-.0162657 1.963422-.859042 2.041044-1.9219636l.005568-.153278c.038064-.7539088-.342984-1.4674026-.991087-1.8557616s-1.457752-.388359-2.105855 0zm1.19058.6365744c.519445 0 .903834.2542135.903834.7418884.011783.3378228-.216284.6371977-.545417.7159482l.623333.8871532h-.503861l-.555805-.8041447h-.493472v.8041447h-.446723l-.020777-2.3449898zm-25.161888-37.2552481c-12.123834 0-19.624611 7.450012-19.624611 19.4343628s7.516361 19.4291748 19.624611 19.4291748c12.284861 0 19.619416-7.2632429 19.619416-19.4291748 0-11.9895388-7.495583-19.4343628-19.619416-19.4343628zm25.161888 37.6547264h-.571388v.7678286h.571388c.306473 0 .477889-.160829.477889-.3839143s-.171416-.3839143-.477889-.3839143z" fill="#7a7a7d"/><path d="m74.3968894 83.8718161c-.2446177.5556235-.6164835 1.0460935-1.0856389 1.4318965l36.5533055-28.1243141-28.6369722 11.1283257z" fill="url(#b)"/><path d="m90.583 59.457 1.47 4.643 3.594-1.395z" fill="url(#c)"/><path d="m93.788 69.553 9.791 30.843 6.083-28.706-10.176-6.521z" fill="url(#d)"/><path d="m95.647 62.705-3.594 1.395 1.735 5.453 5.698-4.384z" fill="#4b883f"/></g></svg>